<svg xmlns="http://www.w3.org/2000/svg" viewBox="0 0 576 512"><path d="M480 320c-10.4 0-20.3 2.1-29.7 5.2 18.2-17.5 29.7-41.9 29.7-69.2 0-53-43-96-96-96-10.4 0-20.3 2.1-29.7 5.2 18.3-17.5 29.7-42 29.7-69.2 0-53-43-96-96-96s-96 43-96 96c0 27.2 11.4 51.7 29.7 69.2-9.4-3.1-19.2-5.2-29.7-5.2-53 0-96 43-96 96 0 27.2 11.4 51.7 29.7 69.2-9.4-3.1-19.2-5.2-29.7-5.2-53 0-96 43-96 96s43 96 96 96 96-43 96-96c0-27.2-11.4-51.7-29.7-69.2 9.4 3.1 19.2 5.2 29.7 5.2s20.3-2.1 29.7-5.2c-18.3 17.5-29.7 42-29.7 69.2 0 53 43 96 96 96s96-43 96-96c0-27.2-11.4-51.7-29.7-69.2 9.4 3.1 19.2 5.2 29.7 5.2s20.3-2.1 29.7-5.2c-18.3 17.5-29.7 42-29.7 69.2 0 53 43 96 96 96s96-43 96-96-43-96-96-96zM96 480c-35.3 0-64-28.7-64-64s28.7-64 64-64 64 28.7 64 64-28.7 64-64 64zM288 32c35.3 0 64 28.7 64 64s-28.7 64-64 64-64-28.7-64-64 28.7-64 64-64zM128 256c0-35.3 28.7-64 64-64s64 28.7 64 64-28.7 64-64 64-64-28.7-64-64zm160 224c-35.3 0-64-28.7-64-64s28.7-64 64-64 64 28.7 64 64-28.7 64-64 64zm0-160c-10.4 0-20.3 2.1-29.7 5.2 18.2-17.5 29.7-41.9 29.7-69.2s-11.4-51.7-29.7-69.2c9.4 3.1 19.2 5.2 29.7 5.2s20.3-2.1 29.7-5.2c-18.3 17.5-29.7 42-29.7 69.2s11.4 51.7 29.7 69.2c-9.4-3.1-19.3-5.2-29.7-5.2zm32-64c0-35.3 28.7-64 64-64s64 28.7 64 64-28.7 64-64 64-64-28.7-64-64zm160 224c-35.3 0-64-28.7-64-64s28.7-64 64-64 64 28.7 64 64-28.7 64-64 64z"/></svg>