<svg xmlns="http://www.w3.org/2000/svg" viewBox="0 0 448 512"><path d="M400 64h-48V8c0-4.4-3.6-8-8-8h-16c-4.4 0-8 3.6-8 8v56H128V8c0-4.4-3.6-8-8-8h-16c-4.4 0-8 3.6-8 8v56H48C21.5 64 0 85.5 0 112v352c0 26.5 21.5 48 48 48h352c26.5 0 48-21.5 48-48V112c0-26.5-21.5-48-48-48zM138.7 480H48c-8.8 0-16-7.2-16-16v-58.7h106.7V480zm0-106.7H32v-74.7h106.7v74.7zM32 266.7V192h106.7v74.7H32zM277.3 480H170.7v-74.7h106.7V480zm0-106.7H170.7v-74.7h106.7v74.7zM170.7 266.7V192h106.7v74.7H170.7zM416 464c0 8.8-7.2 16-16 16h-90.7v-74.7H416V464zm0-90.7H309.3v-74.7H416v74.7zm0-106.6H309.3V192H416v74.7zm0-106.7H32v-48c0-8.8 7.2-16 16-16h352c8.8 0 16 7.2 16 16v48z"/></svg>